<svg data-v-423bf9ae="" xmlns="http://www.w3.org/2000/svg" viewBox="0 0 190.55172252768423 60" class="font"><!----><!----><defs data-v-423bf9ae=""><linearGradient data-v-423bf9ae="" gradientTransform="rotate(25)" id="0ad26390-d48a-44af-bfcb-a87bb17bc12d" x1="0%" y1="0%" x2="100%" y2="0%"><stop data-v-423bf9ae="" offset="0%" style="stop-color: rgb(57, 94, 202); stop-opacity: 1;"></stop><stop data-v-423bf9ae="" offset="100%" style="stop-color: rgb(132, 139, 216); stop-opacity: 1;"></stop></linearGradient></defs><g data-v-423bf9ae="" id="a0eb380e-4a60-4cc6-ba5d-198beb02e64c" fill="url(#0ad26390-d48a-44af-bfcb-a87bb17bc12d)" transform="matrix(3.448275937667407,0,0,3.448275937667407,-1.793103422383382,-17.758621884677524)"><path d="M4.49 11.00Q5.14 11.00 5.69 11.34Q6.24 11.68 6.55 12.38L6.55 12.38L5.10 13.16Q4.96 12.57 4.59 12.24Q4.23 11.91 3.81 11.91L3.81 11.91Q3.25 11.91 2.81 12.26Q2.38 12.60 2.15 13.15Q1.92 13.69 1.92 14.29L1.92 14.29Q1.92 15.23 2.21 15.92Q2.51 16.60 3.02 16.96Q3.53 17.32 4.17 17.32L4.17 17.32Q5.46 17.32 6.65 15.85L6.65 15.85L6.97 16.13Q6.27 17.15 5.48 17.70Q4.69 18.26 3.60 18.26L3.60 18.26Q2.72 18.26 2.02 17.84Q1.32 17.43 0.92 16.68Q0.52 15.93 0.52 14.95L0.52 14.95Q0.52 13.87 0.99 12.97Q1.47 12.07 2.37 11.54Q3.28 11.00 4.49 11.00L4.49 11.00ZM10.08 5.15L10.08 14.62L10.14 14.62Q10.44 13.26 11.14 12.11Q11.84 10.96 12.87 10.96L12.87 10.96Q13.34 10.96 13.57 11.26Q13.80 11.55 13.86 11.95Q13.92 12.35 13.92 12.92L13.92 12.92L13.92 16.80Q13.92 16.97 14.02 17.12Q14.13 17.26 14.32 17.26L14.32 17.26Q14.66 17.26 15.02 16.77L15.02 16.77L15.26 17.04Q15.02 17.51 14.57 17.85Q14.13 18.19 13.59 18.19L13.59 18.19Q12.26 18.19 12.26 16.72L12.26 16.72L12.26 13.05Q12.26 12.87 12.20 12.72Q12.14 12.57 11.98 12.57L11.98 12.57Q11.40 12.57 10.97 13.55Q10.54 14.53 10.31 15.82Q10.08 17.11 10.08 17.91L10.08 17.91L8.40 18.27L8.40 5.74L10.08 5.15ZM19.89 11.09Q20.64 11.09 21.27 11.38Q21.91 11.68 22.22 12.29L22.22 12.29L20.86 12.85Q20.66 12.49 20.31 12.25Q19.96 12.01 19.57 12.01L19.57 12.01Q18.63 12.01 18.09 12.80Q17.54 13.58 17.54 14.76L17.54 14.76Q17.54 15.83 17.86 16.53Q18.19 17.22 18.89 17.22L18.89 17.22Q19.87 17.22 20.23 16.30Q20.59 15.39 20.59 14.31L20.59 14.31L20.59 13.69L22.23 13.10L22.23 16.74Q22.23 16.94 22.32 17.09Q22.41 17.23 22.60 17.23L22.60 17.23Q22.95 17.23 23.31 16.74L23.31 16.74L23.58 17.01Q23.37 17.50 22.91 17.84Q22.46 18.19 21.94 18.19L21.94 18.19Q21.27 18.19 20.96 17.73Q20.65 17.28 20.65 16.56L20.65 16.56L20.59 16.56Q20.26 17.32 19.70 17.79Q19.14 18.26 18.40 18.26L18.40 18.26Q17.28 18.26 16.67 17.44Q16.06 16.62 16.06 15.30L16.06 15.30Q16.06 14.18 16.54 13.22Q17.02 12.25 17.90 11.67Q18.77 11.09 19.89 11.09L19.89 11.09ZM28 12.01L26.59 12.01L26.59 16.80Q26.59 17.00 26.70 17.13Q26.81 17.26 26.99 17.26L26.99 17.26Q27.33 17.26 27.75 16.77L27.75 16.77L28 17.04Q27.75 17.54 27.37 17.79Q26.99 18.05 26.64 18.13Q26.29 18.21 26.29 18.19L26.29 18.19Q24.89 18.19 24.89 16.72L24.89 16.72L24.89 12.01L23.90 12.01L24.33 11.09L24.89 11.09L24.89 7.91L26.59 7.34L26.59 11.09L28.42 11.09L28 12.01ZM26.29 18.19L26.29 18.19ZM35.95 11.09Q36.69 11.09 37.33 11.38Q37.97 11.68 38.28 12.29L38.28 12.29L36.92 12.85Q36.72 12.49 36.37 12.25Q36.02 12.01 35.63 12.01L35.63 12.01Q34.69 12.01 34.15 12.80Q33.60 13.58 33.60 14.76L33.60 14.76Q33.60 15.83 33.92 16.53Q34.24 17.22 34.94 17.22L34.94 17.22Q35.92 17.22 36.29 16.30Q36.65 15.39 36.65 14.31L36.65 14.31L36.65 13.69L38.29 13.10L38.29 16.74Q38.29 16.94 38.38 17.09Q38.47 17.23 38.65 17.23L38.65 17.23Q39.00 17.23 39.37 16.74L39.37 16.74L39.63 17.01Q39.42 17.50 38.97 17.84Q38.51 18.19 38.00 18.19L38.00 18.19Q37.32 18.19 37.02 17.73Q36.71 17.28 36.71 16.56L36.71 16.56L36.65 16.56Q36.32 17.32 35.76 17.79Q35.20 18.26 34.45 18.26L34.45 18.26Q33.33 18.26 32.73 17.44Q32.12 16.62 32.12 15.30L32.12 15.30Q32.12 14.18 32.60 13.22Q33.08 12.25 33.96 11.67Q34.83 11.09 35.95 11.09L35.95 11.09ZM44.83 10.98Q45.56 10.98 46.15 11.40Q46.75 11.82 47.10 12.54Q47.45 13.26 47.45 14.13L47.45 14.13Q47.45 15.37 47.05 16.30Q46.65 17.23 45.91 17.74Q45.18 18.24 44.20 18.24L44.20 18.24Q43.57 18.24 42.91 17.89L42.91 17.89L43.34 16.81Q43.79 17.36 44.53 17.36L44.53 17.36Q45.18 17.36 45.57 16.60Q45.96 15.83 45.96 14.60L45.96 14.60Q45.96 13.47 45.47 12.76Q44.98 12.05 44.21 12.05L44.21 12.05Q43.57 12.05 43.22 12.83Q42.87 13.61 42.87 15.02L42.87 15.02L42.87 21.97L41.23 22.55L41.23 12.43Q41.23 12.19 41.13 12.05Q41.02 11.90 40.85 11.90L40.85 11.90Q40.59 11.90 40.15 12.42L40.15 12.42L39.90 12.17Q40.14 11.65 40.59 11.31Q41.05 10.98 41.52 10.98L41.52 10.98Q42.20 10.98 42.52 11.36Q42.85 11.75 42.85 12.56L42.85 12.56L42.92 12.56Q43.20 11.84 43.72 11.41Q44.24 10.98 44.83 10.98L44.83 10.98ZM53.16 10.98Q53.89 10.98 54.48 11.40Q55.08 11.82 55.43 12.54Q55.78 13.26 55.78 14.13L55.78 14.13Q55.78 15.37 55.38 16.30Q54.98 17.23 54.24 17.74Q53.51 18.24 52.53 18.24L52.53 18.24Q51.90 18.24 51.24 17.89L51.24 17.89L51.67 16.81Q52.12 17.36 52.86 17.36L52.86 17.36Q53.51 17.36 53.90 16.60Q54.29 15.83 54.29 14.60L54.29 14.60Q54.29 13.47 53.80 12.76Q53.31 12.05 52.54 12.05L52.54 12.05Q51.90 12.05 51.55 12.83Q51.20 13.61 51.20 15.02L51.20 15.02L51.20 21.97L49.56 22.55L49.56 12.43Q49.56 12.19 49.45 12.05Q49.35 11.90 49.18 11.90L49.18 11.90Q48.92 11.90 48.48 12.42L48.48 12.42L48.23 12.17Q48.47 11.65 48.92 11.31Q49.38 10.98 49.85 10.98L49.85 10.98Q50.53 10.98 50.85 11.36Q51.18 11.75 51.18 12.56L51.18 12.56L51.25 12.56Q51.53 11.84 52.05 11.41Q52.57 10.98 53.16 10.98L53.16 10.98Z"></path></g><!----><!----></svg>